<svg width="256" height="256" viewBox="0 0 256 256" fill="none" xmlns="http://www.w3.org/2000/svg">
<rect width="256" height="256" fill="white"/>
<rect width="256" height="256" fill="#DBE9F8"/>
<g clip-path="url(#clip0_486_3327)">
<path d="M198.087 84.7817V172.013C198.087 175.696 195.008 178.798 191.352 178.798H147.094C141.513 178.798 137.087 174.339 137.087 168.718C137.087 166.004 138.05 163.484 139.974 161.545L168.261 133.05C170.955 130.336 170.955 126.265 168.261 123.551L139.974 95.2495C138.05 93.311 137.087 90.791 137.087 88.0771C137.087 82.4556 141.513 77.9971 147.094 77.9971H191.352C195.201 77.9971 198.087 81.0986 198.087 84.7817Z" fill="#0860AA"/>
<path d="M116.113 95.2495L88.0184 123.357C85.3245 126.071 85.3245 130.53 88.0184 133.244L116.113 161.545C118.037 163.484 118.999 166.004 118.999 168.718C118.999 174.339 114.573 178.798 108.993 178.798H64.9271C61.0786 178.798 57.9998 175.696 57.9998 171.819V84.9756C57.9998 81.0986 61.0786 77.9971 64.9271 77.9971H108.993C114.573 77.9971 118.999 82.4556 118.999 88.0771C118.999 90.791 117.845 93.311 116.113 95.2495Z" fill="#0860AA"/>
<path d="M122.848 150.11L106.491 133.632C103.605 130.725 103.605 126.072 106.491 123.165L122.848 106.688C125.734 103.78 130.352 103.78 133.239 106.688L149.595 123.165C152.482 126.072 152.482 130.725 149.595 133.632L133.239 150.11C130.352 153.017 125.734 153.017 122.848 150.11Z" fill="#51A8DE"/>
</g>
<defs>
<clipPath id="clip0_486_3327">
<rect width="140.087" height="100.801" fill="white" transform="translate(58 78)"/>
</clipPath>
</defs>
</svg>
