<?xml version="1.0" encoding="UTF-8" standalone="no"?>
<!-- Created with Inkscape (http://www.inkscape.org/) -->

<svg
   width="200"
   height="30"
   viewBox="0 0 52.916665 7.9375"
   version="1.1"
   id="svg217"
   inkscape:export-filename="bitmap.png"
   inkscape:export-xdpi="96"
   inkscape:export-ydpi="96"
   inkscape:version="1.2.1 (9c6d41e, 2022-07-14)"
   sodipodi:docname="logo_clevernode.svg"
   xmlns:inkscape="http://www.inkscape.org/namespaces/inkscape"
   xmlns:sodipodi="http://sodipodi.sourceforge.net/DTD/sodipodi-0.dtd"
   xmlns="http://www.w3.org/2000/svg"
   xmlns:svg="http://www.w3.org/2000/svg">
  <sodipodi:namedview
     id="namedview219"
     pagecolor="#ffffff"
     bordercolor="#000000"
     borderopacity="0.25"
     inkscape:showpageshadow="2"
     inkscape:pageopacity="0.0"
     inkscape:pagecheckerboard="0"
     inkscape:deskcolor="#d1d1d1"
     inkscape:document-units="mm"
     showgrid="false"
     inkscape:zoom="4.55"
     inkscape:cx="100"
     inkscape:cy="15.054945"
     inkscape:window-width="1440"
     inkscape:window-height="769"
     inkscape:window-x="0"
     inkscape:window-y="25"
     inkscape:window-maximized="1"
     inkscape:current-layer="layer1" />
  <defs
     id="defs214" />
  <g
     inkscape:label="Livello 1"
     inkscape:groupmode="layer"
     id="layer1">
    <g
       id="g295"
       transform="matrix(0.16666667,0,0,0.16666667,8.0007059,-0.43591109)">
      <path
         class="cls-1"
         d="m 2.1528269,10.910164 v 31.030333 a 2.38125,2.38125 0 0 1 -2.38125,2.381249 H -16.103423 a 3.5745208,3.5745208 0 0 1 -3.574521,-3.57452 v 0 a 3.5824583,3.5824583 0 0 1 1.058334,-2.529417 L -8.5178188,28.10808 a 2.38125,2.38125 0 0 0 0,-3.373437 L -18.635485,14.627559 a 3.571875,3.571875 0 0 1 -1.058334,-2.52677 v 0 a 3.5745208,3.5745208 0 0 1 3.590396,-3.5718754 h 15.8749999 a 2.38125,2.38125 0 0 1 2.38125,2.3812504 z"
         id="path6"
         style="fill:#0860aa;stroke-width:0.264583" />
      <path
         class="cls-1"
         d="m -27.221214,14.627559 -10.054167,10.054167 a 2.4765,2.4765 0 0 0 0,3.500437 l 10.054167,10.054167 a 3.5798125,3.5798125 0 0 1 1.058333,2.529417 v 0 a 3.5745208,3.5745208 0 0 1 -3.585104,3.561291 h -15.77975 a 2.4765,2.4765 0 0 1 -2.4765,-2.4765 V 11.005414 a 2.4765,2.4765 0 0 1 2.4765,-2.4765004 h 15.77975 a 3.571875,3.571875 0 0 1 3.571875,3.5718754 v 0 a 3.5692291,3.5692291 0 0 1 -1.045104,2.52677 z"
         id="path8"
         style="fill:#0860aa;stroke-width:0.264583" />
      <rect
         class="cls-2"
         x="-4.305882"
         y="28.113758"
         width="13.565187"
         height="13.565187"
         rx="2.6405416"
         transform="rotate(45)"
         id="rect10"
         style="fill:#51a8de;stroke-width:0.264583" />
      <path
         class="cls-3"
         d="m 17.096493,39.342288 q -4.656666,-4.677833 -4.656666,-12.927541 0,-8.249709 4.669896,-12.914313 4.667249,-4.6672496 11.482916,-4.6672496 5.590646,0 9.313333,2.7225626 3.722688,2.722562 4.945063,7.691437 l -5.759979,1.486959 q -2.256896,-5.998104 -8.498417,-5.995459 -4.233333,0 -6.995583,2.997729 -2.76225,2.99773 -2.772834,8.691563 0,5.693833 2.772834,8.691562 2.772833,2.997729 6.995583,2.997729 6.244167,0 8.498417,-5.995458 l 5.759979,1.463146 q -1.225021,4.976812 -4.931834,7.707312 -3.706812,2.7305 -9.326562,2.727854 -6.839479,0 -11.496146,-4.677833 z"
         id="path12"
         style="fill:#373a3f;stroke-width:0.264583" />
      <path
         class="cls-3"
         d="M 47.833139,43.636476 V 8.8331844 h 6.085416 V 43.636476 Z"
         id="path14"
         style="fill:#373a3f;stroke-width:0.264583" />
      <path
         class="cls-3"
         d="m 59.760555,35.741309 a 15.142104,15.142104 0 0 1 0,-8.995833 14.250458,14.250458 0 0 1 2.037292,-4.074583 9.7895832,9.7895832 0 0 1 3.743854,-3.048 12.268729,12.268729 0 0 1 5.437188,-1.164167 11.71575,11.71575 0 0 1 5.25727,1.140354 9.6599374,9.6599374 0 0 1 3.635375,2.976563 13.599583,13.599583 0 0 1 1.992313,3.92377 13.805958,13.805958 0 0 1 0.661458,4.201584 V 33.21983 H 65.45968 a 5.9663541,5.9663541 0 0 0 1.643063,3.923771 q 1.547812,1.669521 4.212166,1.669521 3.794125,0 6.00075,-3.817938 l 4.92125,1.801813 q -3.14325,7.223124 -11.25802,7.223124 a 12.374562,12.374562 0 0 1 -5.437188,-1.150937 9.6361249,9.6361249 0 0 1 -3.743854,-3.048 14.456833,14.456833 0 0 1 -2.037292,-4.079875 z m 5.844646,-7.344833 H 76.28643 q -1.031875,-4.7625 -5.304896,-4.728104 a 5.0059166,5.0059166 0 0 0 -3.598333,1.373187 5.8896249,5.8896249 0 0 0 -1.778,3.354917 z"
         id="path16"
         style="fill:#373a3f;stroke-width:0.264583" />
      <path
         class="cls-3"
         d="m 84.364159,18.866184 h 6.085417 l 5.027083,17.258771 5.027081,-17.258771 h 6.08542 l -8.358189,24.770292 h -5.508624 z"
         id="path18"
         style="fill:#373a3f;stroke-width:0.264583" />
      <path
         class="cls-3"
         d="m 108.79843,35.741309 a 15.142104,15.142104 0 0 1 0,-8.995833 14.115521,14.115521 0 0 1 2.03994,-4.079875 9.7895832,9.7895832 0 0 1 3.74385,-3.042708 12.268729,12.268729 0 0 1 5.43719,-1.164167 11.71575,11.71575 0 0 1 5.25727,1.140354 9.6784582,9.6784582 0 0 1 3.63537,2.976563 13.599583,13.599583 0 0 1 1.99232,3.92377 13.887979,13.887979 0 0 1 0.66146,4.201584 V 33.21983 H 114.5002 a 5.9663541,5.9663541 0 0 0 1.64306,3.923771 q 1.54782,1.669521 4.21217,1.669521 3.79412,0 6.00075,-3.817938 l 4.92125,1.801813 q -3.14854,7.223124 -11.25802,7.223124 a 12.374562,12.374562 0 0 1 -5.43719,-1.150937 9.6361249,9.6361249 0 0 1 -3.74385,-3.048 14.316604,14.316604 0 0 1 -2.03994,-4.079875 z m 5.84465,-7.344833 h 10.68122 q -1.03187,-4.7625 -5.30489,-4.728104 a 5.0270833,5.0270833 0 0 0 -3.60098,1.373187 5.9028541,5.9028541 0 0 0 -1.77535,3.354917 z"
         id="path20"
         style="fill:#373a3f;stroke-width:0.264583" />
      <path
         class="cls-3"
         d="M 136.5691,43.636476 V 18.866184 h 6.08541 v 4.013729 a 9.8213332,9.8213332 0 0 1 3.24115,-3.262312 7.7708124,7.7708124 0 0 1 4.07987,-1.158875 10.220854,10.220854 0 0 1 3.00038,0.502708 l -1.12713,5.61975 a 4.6275624,4.6275624 0 0 0 -2.5691,-0.674687 q -2.91042,0 -4.7625,2.632604 -1.85208,2.632604 -1.85208,8.278812 v 8.818563 z"
         id="path22"
         style="fill:#373a3f;stroke-width:0.264583" />
      <path
         class="cls-3"
         d="M 157.29655,43.636476 V 9.2168303 h 6.72042 L 176.6667,31.947184 V 9.2168303 h 6.3844 V 43.636476 h -6.72307 L 163.68095,20.929934 v 22.706542 z"
         id="path24"
         style="fill:#373a3f;stroke-width:0.264583" />
      <path
         class="cls-3"
         d="m 191.88289,40.405913 q -3.39196,-3.611562 -3.39461,-9.178396 -0.003,-5.566833 3.39461,-9.167812 3.39725,-3.600979 9.19427,-3.600979 5.79702,0 9.18104,3.600979 3.38137,3.603625 3.38402,9.167812 0.003,5.564188 -3.38402,9.178396 -3.38402,3.616854 -9.18104,3.614208 -5.79702,-0.0026 -9.19427,-3.614208 z m 4.66989,-14.552083 q -1.66952,2.19075 -1.66952,5.386917 0,3.196166 1.68011,5.38427 a 5.7573333,5.7573333 0 0 0 9.03552,0 q 1.66952,-2.185458 1.66952,-5.38427 0,-3.198813 -1.66952,-5.386917 a 5.7626249,5.7626249 0 0 0 -9.03552,0 z"
         id="path26"
         style="fill:#373a3f;stroke-width:0.264583" />
      <path
         class="cls-3"
         d="m 220.6378,40.564663 q -2.92893,-3.46075 -2.92629,-9.323916 0.003,-5.863167 2.92629,-9.323917 2.92894,-3.458104 8.37671,-3.458104 a 8.0592082,8.0592082 0 0 1 3.4925,0.79375 6.7680416,6.7680416 0 0 1 2.50825,1.852083 V 8.8331844 h 6.08542 V 43.636476 h -6.08542 V 41.09383 q -0.6006,1.0795 -2.24367,2.002896 a 7.5247499,7.5247499 0 0 1 -3.75708,0.923395 q -5.44777,0 -8.37671,-3.455458 z m 5.07736,-14.89075 q -1.61925,2.008188 -1.61925,5.55625 0,3.548063 1.61925,5.55625 a 5.2361041,5.2361041 0 0 0 8.24441,0.02381 q 1.60602,-1.997604 1.60867,-5.590646 0.003,-3.593042 -1.60867,-5.577417 a 5.2572708,5.2572708 0 0 0 -8.24441,0.02381 z"
         id="path28"
         style="fill:#373a3f;stroke-width:0.264583" />
      <path
         class="cls-3"
         d="m 246.74159,35.741309 a 15.08125,15.08125 0 0 1 0,-8.995833 14.115521,14.115521 0 0 1 2.03994,-4.079875 9.7366665,9.7366665 0 0 1 3.74386,-3.048 12.252854,12.252854 0 0 1 5.43718,-1.164167 11.702521,11.702521 0 0 1 5.25463,1.140354 9.6890415,9.6890415 0 0 1 3.63273,2.981855 13.734521,13.734521 0 0 1 1.99231,3.92377 13.885333,13.885333 0 0 1 0.65352,4.201584 v 2.518833 h -17.06562 a 5.9663541,5.9663541 0 0 0 1.64306,3.923771 q 1.54781,1.669521 4.21481,1.669521 3.79148,0 5.99811,-3.817938 l 4.92125,1.801813 q -3.14325,7.223124 -11.25538,7.223124 a 12.358687,12.358687 0 0 1 -5.43719,-1.150937 9.5964374,9.5964374 0 0 1 -3.74385,-3.048 14.316604,14.316604 0 0 1 -2.02936,-4.079875 z m 5.82084,-7.344833 h 10.68123 q -1.03188,-4.7625 -5.29167,-4.728104 a 5.0112083,5.0112083 0 0 0 -3.60098,1.373187 5.8896249,5.8896249 0 0 0 -1.78858,3.354917 z"
         id="path30"
         style="fill:#373a3f;stroke-width:0.264583" />
    </g>
  </g>
</svg>
